<svg width="147" height="121" viewBox="0 0 147 121" fill="none" xmlns="http://www.w3.org/2000/svg">
<path d="M1.36196 115V97.99H8.56496V100.279H4.44896V115H1.36196ZM14.1674 115.189C13.2854 115.189 12.5574 115.028 11.9834 114.706C11.4094 114.37 10.9754 113.887 10.6814 113.257C10.4014 112.627 10.2614 111.864 10.2614 110.968V106.894C10.2614 105.998 10.4014 105.235 10.6814 104.605C10.9754 103.975 11.4094 103.499 11.9834 103.177C12.5574 102.841 13.2854 102.673 14.1674 102.673C15.0494 102.673 15.7774 102.841 16.3514 103.177C16.9394 103.499 17.3734 103.975 17.6534 104.605C17.9474 105.235 18.0944 105.998 18.0944 106.894V110.968C18.0944 111.864 17.9474 112.627 17.6534 113.257C17.3734 113.887 16.9394 114.37 16.3514 114.706C15.7774 115.028 15.0494 115.189 14.1674 115.189ZM14.1884 113.215C14.5104 113.215 14.7484 113.124 14.9024 112.942C15.0564 112.76 15.1544 112.515 15.1964 112.207C15.2384 111.885 15.2594 111.535 15.2594 111.157V106.705C15.2594 106.327 15.2384 105.984 15.1964 105.676C15.1544 105.368 15.0564 105.123 14.9024 104.941C14.7484 104.745 14.5104 104.647 14.1884 104.647C13.8664 104.647 13.6284 104.745 13.4744 104.941C13.3204 105.123 13.2154 105.368 13.1594 105.676C13.1174 105.984 13.0964 106.327 13.0964 106.705V111.157C13.0964 111.535 13.1174 111.885 13.1594 112.207C13.2154 112.515 13.3204 112.76 13.4744 112.942C13.6284 113.124 13.8664 113.215 14.1884 113.215ZM21.7329 115V104.857H19.5069V102.862H26.8149V104.857H24.5679V115H21.7329ZM32.1519 115.189C31.2699 115.189 30.5419 115.028 29.9679 114.706C29.3939 114.37 28.9599 113.887 28.6659 113.257C28.3859 112.627 28.2459 111.864 28.2459 110.968V106.894C28.2459 105.998 28.3859 105.235 28.6659 104.605C28.9599 103.975 29.3939 103.499 29.9679 103.177C30.5419 102.841 31.2699 102.673 32.1519 102.673C33.0339 102.673 33.7619 102.841 34.3359 103.177C34.9239 103.499 35.3579 103.975 35.6379 104.605C35.9319 105.235 36.0789 105.998 36.0789 106.894V110.968C36.0789 111.864 35.9319 112.627 35.6379 113.257C35.3579 113.887 34.9239 114.37 34.3359 114.706C33.7619 115.028 33.0339 115.189 32.1519 115.189ZM32.1729 113.215C32.4949 113.215 32.7329 113.124 32.8869 112.942C33.0409 112.76 33.1389 112.515 33.1809 112.207C33.2229 111.885 33.2439 111.535 33.2439 111.157V106.705C33.2439 106.327 33.2229 105.984 33.1809 105.676C33.1389 105.368 33.0409 105.123 32.8869 104.941C32.7329 104.745 32.4949 104.647 32.1729 104.647C31.8509 104.647 31.6129 104.745 31.4589 104.941C31.3049 105.123 31.1999 105.368 31.1439 105.676C31.1019 105.984 31.0809 106.327 31.0809 106.705V111.157C31.0809 111.535 31.1019 111.885 31.1439 112.207C31.1999 112.515 31.3049 112.76 31.4589 112.942C31.6129 113.124 31.8509 113.215 32.1729 113.215ZM38.4535 115V102.862H42.3385C43.3605 102.862 44.1445 102.995 44.6905 103.261C45.2365 103.527 45.6075 103.884 45.8035 104.332C46.0135 104.766 46.1255 105.263 46.1395 105.823C46.1395 106.523 45.9995 107.09 45.7195 107.524C45.4535 107.944 45.0125 108.238 44.3965 108.406C44.9425 108.532 45.3625 108.742 45.6565 109.036C45.9505 109.33 46.1535 109.687 46.2655 110.107C46.3775 110.527 46.4335 110.989 46.4335 111.493C46.4335 112.235 46.3075 112.872 46.0555 113.404C45.8035 113.922 45.3765 114.321 44.7745 114.601C44.1725 114.867 43.3395 115 42.2755 115H38.4535ZM41.2885 113.194H41.9605C42.2825 113.194 42.5695 113.159 42.8215 113.089C43.0735 113.019 43.2765 112.858 43.4305 112.606C43.5845 112.34 43.6615 111.934 43.6615 111.388C43.6615 110.772 43.5915 110.324 43.4515 110.044C43.3115 109.764 43.1155 109.596 42.8635 109.54C42.6255 109.47 42.3455 109.435 42.0235 109.435H41.2885V113.194ZM41.2885 107.692H42.2545C42.6745 107.692 42.9825 107.566 43.1785 107.314C43.3885 107.062 43.4935 106.663 43.4935 106.117C43.4935 105.599 43.3815 105.214 43.1575 104.962C42.9335 104.696 42.5555 104.563 42.0235 104.563H41.2885V107.692ZM48.5532 115V102.862H50.8842V110.17L54.2862 102.862H56.5122V115H54.1812V107.692L50.8422 115H48.5532ZM59.0826 115L59.1666 102.862H61.2876L63.8496 109.477L66.4536 102.862H68.5536L68.6376 115H66.3486V108.196L64.3116 113.446H63.4506L61.3926 108.217V115H59.0826ZM80.436 115.189C79.512 115.175 78.77 114.993 78.21 114.643C77.664 114.293 77.265 113.782 77.013 113.11C76.775 112.438 76.656 111.619 76.656 110.653V103.702C76.656 102.61 76.754 101.728 76.95 101.056C77.16 100.384 77.454 99.859 77.832 99.481C78.21 99.103 78.679 98.809 79.239 98.599C79.799 98.375 80.331 98.214 80.835 98.116C81.353 98.004 81.85 97.885 82.326 97.759C82.802 97.619 83.264 97.409 83.712 97.129L84.006 99.46C83.572 99.698 83.11 99.873 82.62 99.985C82.13 100.097 81.647 100.195 81.171 100.279C80.709 100.363 80.275 100.496 79.869 100.678C79.477 100.846 79.183 101.126 78.987 101.518C78.805 101.91 78.714 102.449 78.714 103.135V104.563C78.896 104.367 79.127 104.192 79.407 104.038C79.701 103.884 80.023 103.765 80.373 103.681C80.737 103.597 81.108 103.555 81.486 103.555C82.116 103.555 82.648 103.695 83.082 103.975C83.53 104.241 83.866 104.696 84.09 105.34C84.328 105.97 84.447 106.838 84.447 107.944V110.59C84.447 111.85 84.279 112.816 83.943 113.488C83.607 114.146 83.138 114.594 82.536 114.832C81.934 115.07 81.234 115.189 80.436 115.189ZM80.604 113.257C80.898 113.257 81.122 113.187 81.276 113.047C81.43 112.893 81.535 112.641 81.591 112.291C81.661 111.927 81.696 111.409 81.696 110.737V107.293C81.696 106.803 81.668 106.418 81.612 106.138C81.556 105.844 81.458 105.634 81.318 105.508C81.178 105.368 80.982 105.298 80.73 105.298C80.59 105.298 80.443 105.333 80.289 105.403C80.135 105.473 79.988 105.585 79.848 105.739C79.722 105.893 79.589 106.096 79.449 106.348V110.632C79.449 111.304 79.484 111.829 79.554 112.207C79.624 112.585 79.743 112.858 79.911 113.026C80.079 113.18 80.31 113.257 80.604 113.257ZM86.9237 118.297V116.239C87.4137 116.239 87.8127 116.211 88.1207 116.155C88.4287 116.099 88.6527 116.001 88.7927 115.861C88.9327 115.721 89.0027 115.525 89.0027 115.273C89.0027 115.091 88.9537 114.804 88.8557 114.412C88.7717 114.02 88.6737 113.593 88.5617 113.131L85.8947 102.862H88.6667L90.2417 110.863L91.6067 102.862H94.3577L91.5227 115.483C91.3687 116.197 91.1097 116.757 90.7457 117.163C90.3817 117.569 89.9267 117.856 89.3807 118.024C88.8347 118.206 88.1977 118.297 87.4697 118.297H86.9237ZM94.8294 115.126V113.047C95.2634 113.047 95.6134 112.97 95.8794 112.816C96.1454 112.662 96.3554 112.403 96.5094 112.039C96.6634 111.661 96.7824 111.157 96.8664 110.527C96.9504 109.883 97.0274 109.078 97.0974 108.112L97.4334 102.862H104.489V115H101.633V104.878H99.8904L99.6384 108.448C99.5544 109.778 99.4284 110.877 99.2604 111.745C99.1064 112.613 98.8684 113.292 98.5464 113.782C98.2384 114.272 97.8184 114.622 97.2864 114.832C96.7544 115.028 96.0754 115.126 95.2494 115.126H94.8294ZM110.776 115.189C109.894 115.189 109.166 115.028 108.592 114.706C108.018 114.37 107.584 113.887 107.29 113.257C107.01 112.627 106.87 111.864 106.87 110.968V106.894C106.87 105.998 107.01 105.235 107.29 104.605C107.584 103.975 108.018 103.499 108.592 103.177C109.166 102.841 109.894 102.673 110.776 102.673C111.658 102.673 112.386 102.841 112.96 103.177C113.548 103.499 113.982 103.975 114.262 104.605C114.556 105.235 114.703 105.998 114.703 106.894V110.968C114.703 111.864 114.556 112.627 114.262 113.257C113.982 113.887 113.548 114.37 112.96 114.706C112.386 115.028 111.658 115.189 110.776 115.189ZM110.797 113.215C111.119 113.215 111.357 113.124 111.511 112.942C111.665 112.76 111.763 112.515 111.805 112.207C111.847 111.885 111.868 111.535 111.868 111.157V106.705C111.868 106.327 111.847 105.984 111.805 105.676C111.763 105.368 111.665 105.123 111.511 104.941C111.357 104.745 111.119 104.647 110.797 104.647C110.475 104.647 110.237 104.745 110.083 104.941C109.929 105.123 109.824 105.368 109.768 105.676C109.726 105.984 109.705 106.327 109.705 106.705V111.157C109.705 111.535 109.726 111.885 109.768 112.207C109.824 112.515 109.929 112.76 110.083 112.942C110.237 113.124 110.475 113.215 110.797 113.215ZM121.802 115V110.149C121.578 110.163 121.347 110.184 121.109 110.212C120.885 110.226 120.661 110.233 120.437 110.233C119.611 110.233 118.925 110.135 118.379 109.939C117.833 109.729 117.427 109.4 117.161 108.952C116.909 108.504 116.783 107.923 116.783 107.209V102.862H119.618V107.104C119.618 107.538 119.709 107.874 119.891 108.112C120.087 108.336 120.472 108.455 121.046 108.469C121.172 108.469 121.291 108.462 121.403 108.448C121.529 108.434 121.662 108.42 121.802 108.406V102.862H124.658V115H121.802ZM127.279 115V102.862H130.135V107.818H130.702L132.76 102.862H135.784L133.327 108.658L135.826 115H132.844L130.702 109.477H130.135V115H127.279ZM137.482 115V102.862H139.813V110.17L143.215 102.862H145.441V115H143.11V107.692L139.771 115H137.482Z" fill="black"/>
<path d="M123.36 36.2633C123.2 35.69 122.72 35.26 122.08 35.1166C121.44 34.9733 120.8 35.2598 120.48 35.6898C118.4 38.4131 114.88 40.1331 111.2 40.1331C107.2 40.1331 103.36 38.2698 101.44 35.1164C101.12 34.6864 100.48 34.3997 99.8403 34.3997C99.3603 34.3997 98.8802 34.3997 98.4002 34.3997C90.4002 34.3997 84.0003 28.6664 84.0003 21.4997C84.0003 20.2454 84.1878 19.0473 84.5628 17.9051C84.8102 17.1997 85.0802 16.5547 85.4402 15.9097C85.6002 15.6229 85.6002 15.1929 85.4402 14.7629C85.2803 14.3329 84.9603 14.0462 84.4802 13.9029C81.2802 12.8997 79.2002 10.1762 79.2002 7.16622C79.2002 6.944 79.2113 6.72429 79.2325 6.50677C79.2552 6.35543 79.2931 6.20023 79.3604 6.0195C79.3604 5.92006 79.36 5.82062 79.3561 5.72286C79.6084 4.55447 80.1614 3.45864 80.9603 2.43605C81.4403 2.00605 81.4403 1.43277 81.2804 1.00277C81.1204 0.572773 80.6404 0.142773 80.0003 0.142773C78.5599 0 77.2801 0 76 0C49.6 0 28 19.35 28 43C28 66.65 49.6 86 76 86C102.4 86 124 66.65 124 43C124 40.7067 123.68 38.5567 123.36 36.2633ZM81.3567 17.5353C80.4062 18.0919 79.1547 18.6333 77.5999 18.6333C74.08 18.6333 71.2 16.0533 71.2 12.9C71.2 10.1767 73.2799 7.88328 76 7.31C76 11.0367 78.4 14.3333 81.9199 16.0533C81.6951 16.537 81.5093 17.0322 81.3567 17.5353ZM76 83.1333C51.3601 83.1333 31.2001 65.0733 31.2001 43C31.2001 20.9267 51.3601 2.86672 76 2.86672C76.3201 2.86672 76.6399 2.86672 77.1199 2.86672C76.8291 3.33569 76.6024 3.84262 76.4309 4.36652C71.6973 4.88755 67.9999 8.52458 67.9999 12.9C67.9999 17.63 72.3199 21.5 77.5999 21.5C78.6882 21.5 79.7759 21.3293 80.809 20.9911C80.8036 21.1607 80.8 21.3302 80.8 21.5C80.8 30.2433 88.6399 37.2667 98.4001 37.2667C98.7201 37.2667 98.8801 37.2667 99.2001 37.2667C101.92 40.85 106.4 43 111.2 43C114.72 43 118.08 41.8533 120.64 39.8467C120.8 40.85 120.8 41.9967 120.8 43C120.8 65.0733 100.64 83.1333 76 83.1333Z" fill="#F7654A"/>
<path d="M55.2001 22.9332C49.9201 22.9332 45.6001 26.8032 45.6001 31.5332C45.6001 36.2632 49.9201 40.1332 55.2001 40.1332C60.4801 40.1332 64.8001 36.2632 64.8001 31.5332C64.8001 26.8032 60.4801 22.9332 55.2001 22.9332ZM55.2001 37.2667C51.6801 37.2667 48.8001 34.6867 48.8001 31.5334C48.8001 28.3801 51.6801 25.8001 55.2001 25.8001C58.72 25.8001 61.6 28.3801 61.6 31.5334C61.6 34.6867 58.72 37.2667 55.2001 37.2667Z" fill="#F7654A"/>
<path d="M56.8 54.4667C52.3201 54.4667 48.7999 57.62 48.7999 61.6334C48.7999 65.6468 52.3201 68.8 56.8 68.8C61.2799 68.8 64.8001 65.6467 64.8001 61.6332C64.8001 57.6198 61.2799 54.4667 56.8 54.4667ZM56.8 65.9332C54.0799 65.9332 52 64.07 52 61.6332C52 59.1965 54.0799 57.3332 56.8 57.3332C59.5201 57.3332 61.6 59.1965 61.6 61.6332C61.6 64.07 59.5201 65.9332 56.8 65.9332Z" fill="#F7654A"/>
<path d="M88.8001 50.1667C81.76 50.1667 76 55.3267 76 61.6335C76 67.9402 81.76 73.1002 88.8001 73.1002C95.8401 73.1002 101.6 67.9402 101.6 61.6335C101.6 55.3267 95.8399 50.1667 88.8001 50.1667ZM88.8001 70.2333C83.5201 70.2333 79.2001 66.3633 79.2001 61.6333C79.2001 56.9033 83.5201 53.0333 88.8001 53.0333C94.0801 53.0333 98.4001 56.9033 98.4001 61.6333C98.4001 66.3633 94.0801 70.2333 88.8001 70.2333Z" fill="#F7654A"/>
</svg>
